<svg width="1990" height="532" viewBox="0 0 1990 532" fill="none" xmlns="http://www.w3.org/2000/svg">
<circle cx="198" cy="302" r="52" fill="white" fill-opacity="0.1"/>
<circle cx="197.5" cy="301.5" r="42.5" fill="white"/>
<g filter="url(#filter0_f_1_2)">
<circle cx="1536" cy="300" r="58" fill="white" fill-opacity="0.1"/>
</g>
<circle cx="1535.5" cy="301.5" r="42.5" fill="white"/>
<circle cx="1810.5" cy="301.5" r="42.5" fill="white"/>
<circle cx="1810.5" cy="301.5" r="42.5" fill="white"/>
<circle cx="476.5" cy="299.5" r="69.5" fill="white" fill-opacity="0.1"/>
<circle cx="476.5" cy="301.5" r="58.5" fill="white" fill-opacity="0.1"/>
<circle cx="736" cy="301" r="57" fill="white" fill-opacity="0.1"/>
<circle cx="476.5" cy="301.5" r="42.5" fill="white"/>
<circle cx="736.5" cy="299.5" r="88.5" fill="white" fill-opacity="0.05"/>
<ellipse cx="735" cy="300" rx="73" ry="74" fill="white" fill-opacity="0.1"/>
<circle cx="734.5" cy="301.5" r="42.5" fill="white"/>
<g filter="url(#filter1_f_1_2)">
<circle cx="987" cy="300" r="85" fill="white" fill-opacity="0.05"/>
</g>
<g filter="url(#filter2_f_1_2)">
<ellipse cx="986" cy="302" rx="71" ry="72" fill="white" fill-opacity="0.1"/>
</g>
<ellipse cx="983.5" cy="302.5" rx="59.5" ry="60.5" fill="white" fill-opacity="0.1"/>
<circle cx="983.5" cy="301.5" r="42.5" fill="white"/>
<g filter="url(#filter3_f_1_2)">
<circle cx="1271" cy="300" r="72" fill="white" fill-opacity="0.05"/>
</g>
<g filter="url(#filter4_f_1_2)">
<ellipse cx="1270" cy="302" rx="59" ry="60" fill="white" fill-opacity="0.1"/>
</g>
<circle cx="1270.5" cy="301.5" r="42.5" fill="white"/>
<rect x="40" y="4" width="62.625" height="30" rx="3" fill="white"/>
<path d="M48.6094 22.1406C48.2292 22.1406 47.8841 22.069 47.5742 21.9258C47.2643 21.7799 47.0182 21.5703 46.8359 21.2969C46.6536 21.0208 46.5625 20.6875 46.5625 20.2969C46.5625 19.9531 46.6302 19.6745 46.7656 19.4609C46.901 19.2448 47.082 19.0755 47.3086 18.9531C47.5352 18.8307 47.7852 18.7396 48.0586 18.6797C48.3346 18.6172 48.612 18.5677 48.8906 18.5313C49.2552 18.4844 49.5508 18.4492 49.7773 18.4258C50.0065 18.3997 50.1732 18.3568 50.2773 18.2969C50.3841 18.237 50.4375 18.1328 50.4375 17.9844V17.9531C50.4375 17.5677 50.332 17.2682 50.1211 17.0547C49.9128 16.8411 49.5964 16.7344 49.1719 16.7344C48.7318 16.7344 48.3867 16.8307 48.1367 17.0234C47.8867 17.2161 47.7109 17.4219 47.6094 17.6406L46.7344 17.3281C46.8906 16.9635 47.099 16.6797 47.3594 16.4766C47.6224 16.2708 47.9089 16.1276 48.2188 16.0469C48.5313 15.9635 48.8385 15.9219 49.1406 15.9219C49.3333 15.9219 49.5547 15.9453 49.8047 15.9922C50.0573 16.0365 50.3008 16.1289 50.5352 16.2695C50.7721 16.4102 50.9688 16.6224 51.125 16.9062C51.2813 17.1901 51.3594 17.5703 51.3594 18.0469V22H50.4375V21.1875H50.3906C50.3281 21.3177 50.224 21.457 50.0781 21.6055C49.9323 21.7539 49.7383 21.8802 49.4961 21.9844C49.2539 22.0885 48.9583 22.1406 48.6094 22.1406ZM48.75 21.3125C49.1146 21.3125 49.4219 21.2409 49.6719 21.0977C49.9245 20.9544 50.1146 20.7695 50.2422 20.543C50.3724 20.3164 50.4375 20.0781 50.4375 19.8281V18.9844C50.3984 19.0312 50.3125 19.0742 50.1797 19.1133C50.0495 19.1497 49.8984 19.1823 49.7266 19.2109C49.5573 19.237 49.3919 19.2604 49.2305 19.2812C49.0716 19.2995 48.9427 19.3151 48.8438 19.3281C48.6042 19.3594 48.3802 19.4102 48.1719 19.4805C47.9661 19.5482 47.7995 19.651 47.6719 19.7891C47.5469 19.9245 47.4844 20.1094 47.4844 20.3437C47.4844 20.6641 47.6029 20.9062 47.8398 21.0703C48.0794 21.2318 48.3828 21.3125 48.75 21.3125ZM53.9639 18.3906V22H53.042V16H53.9326V16.9375H54.0107C54.1514 16.6328 54.3649 16.388 54.6514 16.2031C54.9378 16.0156 55.3076 15.9219 55.7607 15.9219C56.167 15.9219 56.5225 16.0052 56.8271 16.1719C57.1318 16.3359 57.3688 16.5859 57.5381 16.9219C57.7074 17.2552 57.792 17.6771 57.792 18.1875V22H56.8701V18.25C56.8701 17.7786 56.7477 17.4115 56.5029 17.1484C56.2581 16.8828 55.9222 16.75 55.4951 16.75C55.2008 16.75 54.9378 16.8138 54.7061 16.9414C54.4769 17.069 54.2959 17.2552 54.1631 17.5C54.0303 17.7448 53.9639 18.0417 53.9639 18.3906ZM59.4766 22V16H60.3984V22H59.4766ZM59.9453 15C59.7656 15 59.6107 14.9388 59.4805 14.8164C59.3529 14.694 59.2891 14.5469 59.2891 14.375C59.2891 14.2031 59.3529 14.056 59.4805 13.9336C59.6107 13.8112 59.7656 13.75 59.9453 13.75C60.125 13.75 60.2786 13.8112 60.4063 13.9336C60.5365 14.056 60.6016 14.2031 60.6016 14.375C60.6016 14.5469 60.5365 14.694 60.4063 14.8164C60.2786 14.9388 60.125 15 59.9453 15ZM62.0869 22V16H62.9775V16.9375H63.0557C63.1807 16.6172 63.3825 16.3685 63.6611 16.1914C63.9398 16.0117 64.2744 15.9219 64.665 15.9219C65.0609 15.9219 65.3903 16.0117 65.6533 16.1914C65.9189 16.3685 66.126 16.6172 66.2744 16.9375H66.3369C66.4906 16.6276 66.721 16.3815 67.0283 16.1992C67.3356 16.0143 67.7041 15.9219 68.1338 15.9219C68.6702 15.9219 69.109 16.0898 69.4502 16.4258C69.7913 16.7591 69.9619 17.2786 69.9619 17.9844V22H69.04V17.9844C69.04 17.5417 68.9189 17.2253 68.6768 17.0352C68.4346 16.8451 68.1494 16.75 67.8213 16.75C67.3994 16.75 67.0726 16.8776 66.8408 17.1328C66.609 17.3854 66.4932 17.7057 66.4932 18.0937V22H65.5557V17.8906C65.5557 17.5495 65.445 17.2747 65.2236 17.0664C65.0023 16.8555 64.7171 16.75 64.3682 16.75C64.1286 16.75 63.9046 16.8138 63.6963 16.9414C63.4906 17.069 63.3239 17.2461 63.1963 17.4727C63.0713 17.6966 63.0088 17.9557 63.0088 18.25V22H62.0869ZM73.4131 22.1406C73.0329 22.1406 72.6878 22.069 72.3779 21.9258C72.068 21.7799 71.8219 21.5703 71.6396 21.2969C71.4574 21.0208 71.3662 20.6875 71.3662 20.2969C71.3662 19.9531 71.4339 19.6745 71.5693 19.4609C71.7048 19.2448 71.8857 19.0755 72.1123 18.9531C72.3389 18.8307 72.5889 18.7396 72.8623 18.6797C73.1383 18.6172 73.4157 18.5677 73.6943 18.5313C74.0589 18.4844 74.3545 18.4492 74.5811 18.4258C74.8102 18.3997 74.9769 18.3568 75.0811 18.2969C75.1878 18.237 75.2412 18.1328 75.2412 17.9844V17.9531C75.2412 17.5677 75.1357 17.2682 74.9248 17.0547C74.7165 16.8411 74.4001 16.7344 73.9756 16.7344C73.5355 16.7344 73.1904 16.8307 72.9404 17.0234C72.6904 17.2161 72.5146 17.4219 72.4131 17.6406L71.5381 17.3281C71.6943 16.9635 71.9027 16.6797 72.1631 16.4766C72.4261 16.2708 72.7126 16.1276 73.0225 16.0469C73.335 15.9635 73.6423 15.9219 73.9443 15.9219C74.137 15.9219 74.3584 15.9453 74.6084 15.9922C74.861 16.0365 75.1045 16.1289 75.3389 16.2695C75.5758 16.4102 75.7725 16.6224 75.9287 16.9062C76.085 17.1901 76.1631 17.5703 76.1631 18.0469V22H75.2412V21.1875H75.1943C75.1318 21.3177 75.0277 21.457 74.8818 21.6055C74.736 21.7539 74.542 21.8802 74.2998 21.9844C74.0576 22.0885 73.762 22.1406 73.4131 22.1406ZM73.5537 21.3125C73.9183 21.3125 74.2256 21.2409 74.4756 21.0977C74.7282 20.9544 74.9183 20.7695 75.0459 20.543C75.1761 20.3164 75.2412 20.0781 75.2412 19.8281V18.9844C75.2021 19.0312 75.1162 19.0742 74.9834 19.1133C74.8532 19.1497 74.7021 19.1823 74.5303 19.2109C74.361 19.237 74.1956 19.2604 74.0342 19.2812C73.8753 19.2995 73.7464 19.3151 73.6475 19.3281C73.4079 19.3594 73.1839 19.4102 72.9756 19.4805C72.7699 19.5482 72.6032 19.651 72.4756 19.7891C72.3506 19.9245 72.2881 20.1094 72.2881 20.3437C72.2881 20.6641 72.4066 20.9062 72.6436 21.0703C72.8831 21.2318 73.1865 21.3125 73.5537 21.3125ZM80.4551 16V16.7812H77.3457V16H80.4551ZM78.252 14.5625H79.1738V20.2812C79.1738 20.5417 79.2116 20.737 79.2871 20.8672C79.3652 20.9948 79.4642 21.0807 79.584 21.125C79.7064 21.1667 79.8353 21.1875 79.9707 21.1875C80.0723 21.1875 80.1556 21.1823 80.2207 21.1719C80.2858 21.1589 80.3379 21.1484 80.377 21.1406L80.5645 21.9687C80.502 21.9922 80.4147 22.0156 80.3027 22.0391C80.1908 22.0651 80.0488 22.0781 79.877 22.0781C79.6165 22.0781 79.3613 22.0221 79.1113 21.9102C78.8639 21.7982 78.6582 21.6276 78.4941 21.3984C78.3327 21.1693 78.252 20.8802 78.252 20.5312V14.5625ZM81.8418 22V16H82.7637V22H81.8418ZM82.3105 15C82.1309 15 81.9759 14.9388 81.8457 14.8164C81.7181 14.694 81.6543 14.5469 81.6543 14.375C81.6543 14.2031 81.7181 14.056 81.8457 13.9336C81.9759 13.8112 82.1309 13.75 82.3105 13.75C82.4902 13.75 82.6439 13.8112 82.7715 13.9336C82.9017 14.056 82.9668 14.2031 82.9668 14.375C82.9668 14.5469 82.9017 14.694 82.7715 14.8164C82.6439 14.9388 82.4902 15 82.3105 15ZM86.8896 22.125C86.348 22.125 85.8727 21.9961 85.4639 21.7383C85.0576 21.4805 84.7399 21.1198 84.5107 20.6562C84.2842 20.1927 84.1709 19.651 84.1709 19.0312C84.1709 18.4062 84.2842 17.8607 84.5107 17.3945C84.7399 16.9284 85.0576 16.5664 85.4639 16.3086C85.8727 16.0508 86.348 15.9219 86.8896 15.9219C87.4313 15.9219 87.9053 16.0508 88.3115 16.3086C88.7204 16.5664 89.0381 16.9284 89.2646 17.3945C89.4938 17.8607 89.6084 18.4062 89.6084 19.0312C89.6084 19.651 89.4938 20.1927 89.2646 20.6562C89.0381 21.1198 88.7204 21.4805 88.3115 21.7383C87.9053 21.9961 87.4313 22.125 86.8896 22.125ZM86.8896 21.2969C87.3011 21.2969 87.6396 21.1914 87.9053 20.9805C88.1709 20.7695 88.3675 20.4922 88.4951 20.1484C88.6227 19.8047 88.6865 19.4323 88.6865 19.0312C88.6865 18.6302 88.6227 18.2565 88.4951 17.9102C88.3675 17.5638 88.1709 17.2839 87.9053 17.0703C87.6396 16.8568 87.3011 16.75 86.8896 16.75C86.4782 16.75 86.1396 16.8568 85.874 17.0703C85.6084 17.2839 85.4118 17.5638 85.2842 17.9102C85.1566 18.2565 85.0928 18.6302 85.0928 19.0312C85.0928 19.4323 85.1566 19.8047 85.2842 20.1484C85.4118 20.4922 85.6084 20.7695 85.874 20.9805C86.1396 21.1914 86.4782 21.2969 86.8896 21.2969ZM91.9375 18.3906V22H91.0156V16H91.9062V16.9375H91.9844C92.125 16.6328 92.3385 16.388 92.625 16.2031C92.9115 16.0156 93.2813 15.9219 93.7344 15.9219C94.1406 15.9219 94.4961 16.0052 94.8008 16.1719C95.1055 16.3359 95.3424 16.5859 95.5117 16.9219C95.681 17.2552 95.7656 17.6771 95.7656 18.1875V22H94.8438V18.25C94.8438 17.7786 94.7214 17.4115 94.4766 17.1484C94.2318 16.8828 93.8958 16.75 93.4687 16.75C93.1745 16.75 92.9115 16.8138 92.6797 16.9414C92.4505 17.069 92.2695 17.2552 92.1367 17.5C92.0039 17.7448 91.9375 18.0417 91.9375 18.3906Z" fill="black"/>
<defs>
<filter id="filter0_f_1_2" x="1474" y="238" width="124" height="124" filterUnits="userSpaceOnUse" color-interpolation-filters="sRGB">
<feFlood flood-opacity="0" result="BackgroundImageFix"/>
<feBlend mode="normal" in="SourceGraphic" in2="BackgroundImageFix" result="shape"/>
<feGaussianBlur stdDeviation="2" result="effect1_foregroundBlur_1_2"/>
</filter>
<filter id="filter1_f_1_2" x="898" y="211" width="178" height="178" filterUnits="userSpaceOnUse" color-interpolation-filters="sRGB">
<feFlood flood-opacity="0" result="BackgroundImageFix"/>
<feBlend mode="normal" in="SourceGraphic" in2="BackgroundImageFix" result="shape"/>
<feGaussianBlur stdDeviation="2" result="effect1_foregroundBlur_1_2"/>
</filter>
<filter id="filter2_f_1_2" x="911" y="226" width="150" height="152" filterUnits="userSpaceOnUse" color-interpolation-filters="sRGB">
<feFlood flood-opacity="0" result="BackgroundImageFix"/>
<feBlend mode="normal" in="SourceGraphic" in2="BackgroundImageFix" result="shape"/>
<feGaussianBlur stdDeviation="2" result="effect1_foregroundBlur_1_2"/>
</filter>
<filter id="filter3_f_1_2" x="1195" y="224" width="152" height="152" filterUnits="userSpaceOnUse" color-interpolation-filters="sRGB">
<feFlood flood-opacity="0" result="BackgroundImageFix"/>
<feBlend mode="normal" in="SourceGraphic" in2="BackgroundImageFix" result="shape"/>
<feGaussianBlur stdDeviation="2" result="effect1_foregroundBlur_1_2"/>
</filter>
<filter id="filter4_f_1_2" x="1207" y="238" width="126" height="128" filterUnits="userSpaceOnUse" color-interpolation-filters="sRGB">
<feFlood flood-opacity="0" result="BackgroundImageFix"/>
<feBlend mode="normal" in="SourceGraphic" in2="BackgroundImageFix" result="shape"/>
<feGaussianBlur stdDeviation="2" result="effect1_foregroundBlur_1_2"/>
</filter>
</defs>
</svg>
